<?xml version="1.0" encoding="utf-8"?>
<svg viewBox="74.897 43.071 360.992 360.992" xmlns="http://www.w3.org/2000/svg">
  <path d="M 129.952 232.62 L 129.952 123.987 L 224.033 178.304 L 224.033 214.514 L 161.312 178.304 L 161.312 250.725 Z" fill="#00b0ff" style=""/>
  <path d="M 224.033 178.304 L 318.114 123.987 L 318.114 232.62 L 255.394 268.831 L 224.033 250.725 L 286.754 214.514 L 286.754 178.304 L 224.033 214.514 Z" fill="#0081cb" style=""/>
  <path d="M 224.033 250.725 L 224.033 286.936 L 286.754 323.147 L 286.754 286.936 Z" fill="#00b0ff" style=""/>
  <path d="M 286.754 323.147 L 380.835 268.831 L 380.835 196.409 L 349.475 214.514 L 349.475 250.725 L 286.754 286.936 Z M 349.475 178.304 L 349.475 142.093 L 380.835 123.987 L 380.835 160.198 Z" fill="#0081cb" style=""/>
  <rect x="74.897" y="43.071" width="360.992" height="360.992" style="fill: rgba(216, 216, 216, 0);"/>
</svg>