<?xml version="1.0"?>
<svg xmlns="http://www.w3.org/2000/svg" xmlns:xlink="http://www.w3.org/1999/xlink" xmlns:svgjs="http://svgjs.com/svgjs" version="1.1" width="512" height="512" x="0" y="0" viewBox="0 0 510 510" style="enable-background:new 0 0 512 512" xml:space="preserve" class=""><g><g xmlns="http://www.w3.org/2000/svg"><path d="m467.656 397.5c8.201-12.945 12.344-27.979 12.344-45 0-40.21-23.357-87.049-62.481-125.293-40.857-39.94-91.802-64.225-144.122-68.875-25.191-27.717-61.063-48.144-98.282-48.322-8.686-.041-16.882-3.477-23.079-9.672l-21.716-21.717c3.06-6.56 4.68-13.76 4.68-21.121 0-27.57-22.43-50-50-50-22.993 0-42.412 15.603-48.225 36.775-21.173 5.813-36.775 25.232-36.775 48.225 0 27.57 22.43 50 50 50 5.014 0 9.971-.751 14.711-2.208l23.686 23.685c6.195 6.196 9.631 14.393 9.673 23.079.02 4.012.278 8.051.771 12.101-43.892 28.082-68.841 67.126-68.841 108.343 0 33.128 15.789 64.438 44.469 90h-74.469v30h30c0 41.355 33.645 75 75 75h300c41.355 0 75-33.645 75-75h30v-30zm-397.267-293.957-10.06 6.088c-3.101 1.877-6.673 2.869-10.329 2.869-11.027 0-20-8.973-20-20s8.973-20 20-20h15v-15c0-11.027 8.973-20 20-20s20 8.973 20 20c0 4.887-1.787 9.595-5.033 13.255l-9.37 10.569 40.226 40.226c11.825 11.824 27.504 18.379 44.148 18.459 45.62.219 96.436 45.064 104.544 93.707 6.599 39.589-18.23 64.328-57.737 57.738-48.638-8.105-93.489-58.918-93.708-104.543-.08-16.645-6.636-32.324-18.46-44.148zm-10.389 203.957c0-28.279 16.904-55.879 46.959-77.593 17.968 44.218 61.842 83.134 109.886 91.14 26.607 4.436 53.255-.879 72.318-19.942 17.686-17.685 24.769-43.369 19.943-72.319-2.044-12.264-6.163-24.517-12.095-36.3 36.09 8.553 70.597 27.886 99.536 56.175 32.971 32.229 53.453 72.018 53.453 103.839 0 19.302-7.469 33.699-23.43 45h-299.797c-42.483-23.041-66.773-55.691-66.773-90zm345 165h-300c-24.813 0-45-20.186-45-45h390c0 24.814-20.186 45-45 45z" fill="#1a8e79" data-original="#000000" style=""/><path d="m285 112.5h30c0-3.104.616-3.921 3.889-7.739 4.425-5.163 11.111-12.964 11.111-27.263s-6.685-22.1-11.11-27.262c-3.273-3.818-3.89-4.636-3.89-7.74 0-3.102.616-3.918 3.889-7.735 4.425-5.162 11.111-12.962 11.111-27.261h-30c0 3.102-.616 3.918-3.889 7.735-4.423 5.162-11.111 12.962-11.111 27.261 0 14.3 6.686 22.102 11.111 27.264 3.272 3.818 3.889 4.635 3.889 7.738s-.616 3.921-3.89 7.739c-4.424 5.163-11.11 12.964-11.11 27.263z" fill="#1a8e79" data-original="#000000" style=""/><path d="m360 142.5h30c0-3.104.616-3.921 3.889-7.739 4.425-5.163 11.111-12.964 11.111-27.263s-6.685-22.1-11.11-27.262c-3.273-3.818-3.89-4.636-3.89-7.74 0-3.102.616-3.918 3.889-7.735 4.425-5.162 11.111-12.962 11.111-27.261h-30c0 3.102-.616 3.918-3.889 7.735-4.423 5.162-11.111 12.962-11.111 27.261 0 14.3 6.686 22.102 11.111 27.264 3.272 3.818 3.889 4.635 3.889 7.738s-.616 3.921-3.89 7.739c-4.424 5.163-11.11 12.964-11.11 27.263z" fill="#1a8e79" data-original="#000000" style=""/><path d="m435 172.5h30c0-3.104.616-3.921 3.889-7.739 4.425-5.163 11.111-12.964 11.111-27.263s-6.685-22.1-11.11-27.262c-3.273-3.818-3.89-4.636-3.89-7.74 0-3.102.616-3.918 3.889-7.735 4.425-5.162 11.111-12.962 11.111-27.261h-30c0 3.102-.616 3.918-3.889 7.735-4.423 5.162-11.111 12.962-11.111 27.261 0 14.3 6.686 22.102 11.111 27.264 3.272 3.818 3.889 4.635 3.889 7.738 0 3.104-.616 3.921-3.89 7.739-4.424 5.163-11.11 12.964-11.11 27.263z" fill="#1a8e79" data-original="#000000" style=""/></g></g></svg>
