<?xml version="1.0"?>
<svg xmlns="http://www.w3.org/2000/svg" xmlns:xlink="http://www.w3.org/1999/xlink" xmlns:svgjs="http://svgjs.com/svgjs" version="1.1" width="512" height="512" x="0" y="0" viewBox="0 0 480 480" style="enable-background:new 0 0 512 512" xml:space="preserve" class=""><g>
<g xmlns="http://www.w3.org/2000/svg">
	<g>
		<circle cx="88" cy="136" r="8" fill="#1a8e79" data-original="#000000" style="" class=""/>
	</g>
</g>
<g xmlns="http://www.w3.org/2000/svg">
	<g>
		<path d="M464.968,216c-8.749,0.026-17.144-3.452-23.312-9.656c-9.162-9.214-21.63-14.379-34.624-14.344H232    c-36.654-0.041-67.444-27.578-71.56-64c21.908-0.267,39.535-18.09,39.56-40c0-4.418-3.582-8-8-8h-32v-8c0-13.255,10.745-24,24-24    h9.368c13.255,0,24-10.745,24-24s-10.745-24-24-24H184c-39.746,0.044-71.956,32.254-72,72v10.36L5.312,120.472    C2.129,121.607,0.003,124.621,0,128v56c0,4.418,3.582,8,8,8h8v40h8c22.08-0.026,39.974-17.92,40-40h16v86.856    c-0.037,22.427,8.557,44.009,24,60.272V464h32v8c0,4.418,3.582,8,8,8h32c4.418,0,8-3.582,8-8v-88c0-4.418,3.582-8,8-8h168v88h32v8    c0,4.418,3.582,8,8,8h32c4.418,0,8-3.582,8-8V280c-0.021-5.369-0.535-10.725-1.536-16H440c22.08-0.026,39.974-17.92,40-40v-8    H464.968z M128,72c0.035-30.913,25.087-55.965,56-56h9.368c4.418,0,8,3.582,8,8s-3.582,8-8,8H184c-22.08,0.026-39.974,17.92-40,40    v8h-16V72z M32,214.632V192h16C47.988,202.168,41.582,211.229,32,214.632z M136,448h-16v-92.096    c1.352,1.664,2.624,3.376,3.816,5.136c0.296,0.44,0.552,0.904,0.8,1.352c0.904,1.408,1.776,2.832,2.584,4.296    c0.376,0.696,0.712,1.408,1.072,2.112c0.632,1.264,1.248,2.528,1.808,3.824c0.344,0.8,0.648,1.6,0.96,2.4    c0.491,1.259,0.947,2.533,1.368,3.824c0.272,0.8,0.528,1.664,0.8,2.512c0.376,1.312,0.696,2.64,0.992,4    c0.184,0.8,0.384,1.648,0.536,2.488c0.272,1.464,0.472,2.952,0.656,4.44c0.088,0.72,0.208,1.44,0.28,2.168    c0.208,2.224,0.328,4.456,0.328,6.72V448z M392,448h-16v-72h8c4.418,0,8,3.582,8,8V448z M424,464h-16v-80    c0-13.255-10.745-24-24-24H192c-13.255,0-24,10.745-24,24v80h-16v-62.856c0.064-23.352-9.218-45.758-25.776-62.224l-8.568-8.568    l-0.568-0.568c-13.55-13.478-21.144-31.817-21.088-50.928V184c0-4.418-3.582-8-8-8H16v-16h24v-16H16v-10.36L121.376,96h61.248    c-3.4,9.58-12.458,15.987-22.624,16h-8c-4.418,0-8,3.582-8,8c0.053,48.579,39.421,87.947,88,88h120    c39.755,0.022,71.978,32.245,72,72V464z M440,248h-6.032c-0.072-0.176-0.176-0.336-0.248-0.512    c-1.425-3.571-3.082-7.045-4.96-10.4c-0.296-0.528-0.584-1.056-0.888-1.6c-1.881-3.218-3.965-6.312-6.24-9.264    c-0.384-0.496-0.8-0.992-1.168-1.48c-2.308-2.88-4.795-5.61-7.448-8.176c-0.424-0.408-0.856-0.8-1.28-1.184    c-2.734-2.548-5.628-4.918-8.664-7.096c-0.128-0.096-0.24-0.208-0.368-0.304h4.328c8.749-0.026,17.144,3.452,23.312,9.656    c8.596,8.649,20.13,13.749,32.312,14.288C459.287,241.555,450.2,248.001,440,248z" fill="#1a8e79" data-original="#000000" style="" class=""/>
	</g>
</g>
<g xmlns="http://www.w3.org/2000/svg">
</g>
<g xmlns="http://www.w3.org/2000/svg">
</g>
<g xmlns="http://www.w3.org/2000/svg">
</g>
<g xmlns="http://www.w3.org/2000/svg">
</g>
<g xmlns="http://www.w3.org/2000/svg">
</g>
<g xmlns="http://www.w3.org/2000/svg">
</g>
<g xmlns="http://www.w3.org/2000/svg">
</g>
<g xmlns="http://www.w3.org/2000/svg">
</g>
<g xmlns="http://www.w3.org/2000/svg">
</g>
<g xmlns="http://www.w3.org/2000/svg">
</g>
<g xmlns="http://www.w3.org/2000/svg">
</g>
<g xmlns="http://www.w3.org/2000/svg">
</g>
<g xmlns="http://www.w3.org/2000/svg">
</g>
<g xmlns="http://www.w3.org/2000/svg">
</g>
<g xmlns="http://www.w3.org/2000/svg">
</g>
</g></svg>
