<?xml version="1.0"?>
<svg xmlns="http://www.w3.org/2000/svg" xmlns:xlink="http://www.w3.org/1999/xlink" xmlns:svgjs="http://svgjs.com/svgjs" version="1.1" width="512" height="512" x="0" y="0" viewBox="0 0 512 512" style="enable-background:new 0 0 512 512" xml:space="preserve"><g>
<g xmlns="http://www.w3.org/2000/svg">
	<g>
		<path d="M68.883,110.138c-4.142,0-7.5,3.357-7.5,7.5s3.358,7.5,7.5,7.5h0.08c4.142,0,7.46-3.357,7.46-7.5    S73.025,110.138,68.883,110.138z" fill="#1a8e79" data-original="#000000" style=""/>
	</g>
</g>
<g xmlns="http://www.w3.org/2000/svg">
	<g>
		<path d="M512,185.522c0-13.356-16.481-29.179-53.239-34.664c-29.771-19.506-71.217-17.591-101.871-12.132    c-74.744,13.31-132.72,0.298-163.247-36.641C143.401,41.294,85.552,35.132,54.375,60.462    C39.389,72.637,38.988,88.384,39.712,95.458L1.397,149.099c-1.101,1.541-1.578,3.441-1.335,5.319    c0.03,0.233,0.757,5.784,2.47,11.914c2.708,9.693,6.437,15.722,11.397,18.427c2.142,1.169,5.247,2.163,11.312,2.163    c5.988-0.001,14.863-0.97,28.542-3.698c6.137-1.224,12.004-2.56,16.759-3.7c27.115,27.268,46.556,61.719,63.75,92.247    c12.899,22.902,24.04,42.682,36.151,55.234c5.292,5.484,10.867,9.708,16.688,12.69l5.199,19.329    c0.925,3.438,1.394,6.985,1.394,10.545v46.866l-16.75,38.653c-1.004,2.318-0.774,4.986,0.612,7.099    c1.386,2.113,3.743,3.384,6.27,3.384h40.081c3.92,0,7.179-3.02,7.478-6.928l9.493-124.07c9.462-6.032,16.822-13.322,21.059-18.013    c34.999,14.785,91.503,15.252,143.338-0.224c1.162,1.115,2.879,3.117,4.328,4.806c2.521,2.937,5.674,6.589,9.608,10.351    l29.134,56.714l-19.551,67.787c-0.653,2.264-0.204,4.704,1.213,6.587c1.417,1.884,3.636,2.991,5.993,2.991h36.407    c3.85,0,7.074-2.914,7.462-6.744l8.016-79.159c0.079-0.779,0.035-1.566-0.129-2.333l-9.499-44.17    c3.766-3.489,6.746-8.167,8.032-14.547c3.886-19.278,9.65-63.464,9.65-84.999c0-6.138-0.323-12-0.953-17.593    C500.532,210.774,512,198.319,512,185.522z M216.987,450.571h-21.708l6.889-15.898l15.637,5.212L216.987,450.571z     M218.985,424.467l-10.836-3.612c0.375-0.909,0.574-1.881,0.574-2.865v-48.421c0-4.874-0.642-9.732-1.908-14.441l-2.792-10.378    c1.547,0.155,3.105,0.244,4.679,0.244c0.946,0,1.899-0.028,2.855-0.084c4.772-0.281,9.365-1.266,13.724-2.727L218.985,424.467z     M465.657,450.571h-19.659l4.642-16.095l16.169,4.716L465.657,450.571z M468.346,424.015l-13.549-3.952l8.813-30.557    c0.529-1.834,0.339-3.802-0.532-5.501l-20.415-39.808c1.181,0.121,2.353,0.178,3.511,0.178c4.4,0,8.622-0.794,12.55-1.775    c1.865-0.466,3.854-1.023,5.879-1.716l8.268,38.448L468.346,424.015z M471.614,315.654c-1.053,5.223-4.267,9.328-16.528,12.394    c-7.917,1.98-13.7,2.204-19.828-2.509c-6.139-4.723-10.632-9.959-14.242-14.166c-5.43-6.327-10.563-12.305-18.133-9.977    c-28.568,8.774-59.994,12.663-88.496,10.958c-27.004-1.619-49.465-8.318-61.622-18.38c-3.191-2.64-7.919-2.194-10.56,0.997    c-2.641,3.19-2.195,7.918,0.996,10.56c1.568,1.297,3.248,2.536,5.021,3.723c-7.591,7.76-21.783,19.775-37.598,20.683    c-10.527,0.601-20.139-3.761-29.39-13.349c-10.778-11.17-21.482-30.175-33.875-52.18c-16.604-29.48-35.257-62.516-61.128-90.207    c3.656-2.741,9.197-8.429,14.567-19.903c1.756-3.752,0.139-8.217-3.613-9.973c-3.752-1.757-8.216-0.137-9.972,3.613    c-4.846,10.354-9.209,13.771-10.344,14.53c-27.767,7.452-51.026,10.692-55.772,9.096c-1.882-1.552-4.423-8.905-5.722-16.232    l38.101-53.34c1.217-1.326,10.796-10.83,30.309-4.829c1.466,0.452,3.036,0.442,4.496-0.026c0.138-0.044,11.866-3.747,25.366-3.747    c0.104,0,0.208,0,0.311,0c-1.343,5.743-6.013,14.979-21.419,23.023c-3.672,1.918-5.094,6.448-3.176,10.12    c1.917,3.672,6.448,5.092,10.12,3.177c34.679-18.11,29.816-43.818,29.592-44.904c-0.657-3.183-3.288-5.58-6.517-5.938    c-15.699-1.746-30.916,1.778-36.571,3.32C73.148,78.714,63.147,80.196,55.922,83c1.3-3.585,3.67-7.45,7.911-10.897    c20.579-16.72,69.052-19.989,118.248,39.538c34.123,41.289,97.14,56.152,177.439,41.853c30.051-5.351,71.234-7.241,96.771,14.15    c16.374,13.715,24.676,35.912,24.676,65.975C480.968,254.286,475.38,296.967,471.614,315.654z M491.505,197.498    c-2.661-9.634-6.509-18.209-11.533-25.696c13.371,5.557,17.029,12.211,17.029,13.72C497,189.062,494.542,193.478,491.505,197.498z    " fill="#1a8e79" data-original="#000000" style=""/>
	</g>
</g>
<g xmlns="http://www.w3.org/2000/svg">
</g>
<g xmlns="http://www.w3.org/2000/svg">
</g>
<g xmlns="http://www.w3.org/2000/svg">
</g>
<g xmlns="http://www.w3.org/2000/svg">
</g>
<g xmlns="http://www.w3.org/2000/svg">
</g>
<g xmlns="http://www.w3.org/2000/svg">
</g>
<g xmlns="http://www.w3.org/2000/svg">
</g>
<g xmlns="http://www.w3.org/2000/svg">
</g>
<g xmlns="http://www.w3.org/2000/svg">
</g>
<g xmlns="http://www.w3.org/2000/svg">
</g>
<g xmlns="http://www.w3.org/2000/svg">
</g>
<g xmlns="http://www.w3.org/2000/svg">
</g>
<g xmlns="http://www.w3.org/2000/svg">
</g>
<g xmlns="http://www.w3.org/2000/svg">
</g>
<g xmlns="http://www.w3.org/2000/svg">
</g>
</g></svg>
