<?xml version="1.0"?>
<svg xmlns="http://www.w3.org/2000/svg" xmlns:xlink="http://www.w3.org/1999/xlink" xmlns:svgjs="http://svgjs.com/svgjs" version="1.1" width="512" height="512" x="0" y="0" viewBox="0 0 512 512" style="enable-background:new 0 0 512 512" xml:space="preserve" class=""><g><path xmlns="http://www.w3.org/2000/svg" d="M496,264c0-28.567-7.026-54.255-20.635-76.293,12.222-11.572,28.241-34.564,13.439-67.8,5.825-14.409,9.276-40.137-12.366-54.565a8,8,0,1,0-8.876,13.312c8.275,5.517,10.095,13.862,9.63,21.309a24,24,0,1,0,.951,39.409c2.473,15.283-3.893,26.856-12.086,35.119A152.04,152.04,0,0,0,430.4,142.316C392.3,117.25,340.289,104,280,104c-49.018,0-96.057,9.376-133.639,26.524-12.154-28.315-39.521-34.114-40.792-34.369A8,8,0,0,0,96,104c0,4.15-4.271,14.642-7.155,20.422-7.537,15.075-6.961,31.323,1.5,46.335-5.139,6.54-8.531,13.013-10.108,19.3C74.291,213.853,58.64,222.173,54.48,224H40a24.027,24.027,0,0,0-24,24v16a24.027,24.027,0,0,0,24,24H53.227c26.329,20.266,52.5,21.314,70.034,18.518A98.339,98.339,0,0,0,144,300.791v90.226l-7.761,31.043A8,8,0,0,0,144,432h48a8,8,0,0,0,8-8V393.3l20.916-62.749A238.132,238.132,0,0,0,341.235,342.9a221.9,221.9,0,0,0,45.926-12.122l20.513,61.539-7.435,29.739A8,8,0,0,0,408,432h48a8,8,0,0,0,8-8V392.983L495.761,265.94A7.977,7.977,0,0,0,496,264ZM464,128a8,8,0,1,1,8-8A8.009,8.009,0,0,1,464,128ZM32,264V248a8.009,8.009,0,0,1,8-8h8v32H40A8.009,8.009,0,0,1,32,264ZM154.246,416l4-16H184v16Zm264,0,4-16H448v16Zm31.508-32H421.767L399.59,317.47a7.95,7.95,0,0,0-1.483-2.616l-.029-.035c-.144-.169-.294-.33-.451-.486-.052-.052-.105-.1-.158-.153-.128-.12-.258-.237-.394-.348-.1-.081-.2-.157-.3-.233s-.211-.157-.32-.23c-.149-.1-.3-.194-.461-.286-.072-.041-.142-.085-.215-.125-.057-.03-.11-.066-.168-.1C394.484,312.284,368,298.318,368,264a8,8,0,0,0-16,0c0,27.214,13.1,44.49,23.6,53.974a212.6,212.6,0,0,1-37.452,9.217,222.1,222.1,0,0,1-119.07-14.576,8,8,0,0,0-10.667,4.855L186.233,384H160V288a8.01,8.01,0,0,0-12.316-6.735C145.951,282.367,105.7,307.3,64,276.1V237.108c8.659-4.662,25.149-16.722,31.76-43.162,1.285-5.126,4.882-11.044,10.4-17.115a8,8,0,0,0,.622-9.985c-8.247-11.721-9.468-23.586-3.627-35.268a119.207,119.207,0,0,0,6.9-16.972,43.861,43.861,0,0,1,23.952,29.071,8,8,0,0,0,11.345,5.08C181.979,130.213,229.8,120,280,120c56.338,0,106.627,12.672,141.6,35.684C460.08,181,479.724,217.11,480,263.027Z" fill="#1a8e79" data-original="#000000" style=""/><circle xmlns="http://www.w3.org/2000/svg" cx="104" cy="232" r="8" fill="#1a8e79" data-original="#000000" style=""/></g></svg>
