<?xml version="1.0"?>
<svg xmlns="http://www.w3.org/2000/svg" xmlns:xlink="http://www.w3.org/1999/xlink" xmlns:svgjs="http://svgjs.com/svgjs" version="1.1" width="512" height="512" x="0" y="0" viewBox="0 -74 512 512" style="enable-background:new 0 0 512 512" xml:space="preserve" class=""><g><path xmlns="http://www.w3.org/2000/svg" d="m496.550781 244.671875h-79.160156c2.230469-4.078125 3.503906-8.75 3.503906-13.71875v-40.167969c0-13.621094-9.550781-25.042968-22.308593-27.949218 3.332031-5.019532 5.28125-11.035157 5.28125-17.496094 0-6.15625-1.769532-11.90625-4.816407-16.777344h12.078125c9.132813 0 16.5625-7.429688 16.5625-16.5625v-20.296875c0-9.132813-7.429687-16.5625-16.5625-16.5625h-31.515625v-67.664063c0-4.132812-3.34375-7.476562-7.472656-7.476562s-7.476563 3.34375-7.476563 7.476562v67.664063h-31.511718c-9.132813 0-16.5625 7.429687-16.5625 16.5625v20.296875c0 9.132812 7.429687 16.5625 16.5625 16.5625h12.078125c-3.046875 4.871094-4.816407 10.621094-4.816407 16.777344 0 6.460937 1.949219 12.476562 5.28125 17.496094-12.757812 2.90625-22.308593 14.328124-22.308593 27.949218v40.167969c0 4.964844 1.273437 9.640625 3.503906 13.71875h-24.660156c1.78125-5.160156 2.699219-10.609375 2.699219-16.167969 0-19.195312-10.972657-35.863281-26.96875-44.089844 5.644531-5.730468 9.132812-13.589843 9.132812-22.25 0-14.917968-10.351562-27.457031-24.25-30.828124v-68.5625c0-4.128907-3.34375-7.472657-7.476562-7.472657-4.125 0-7.472657 3.34375-7.472657 7.472657v68.5625c-13.898437 3.371093-24.25 15.910156-24.25 30.828124 0 8.660157 3.488281 16.519532 9.132813 22.25-15.996094 8.230469-26.96875 24.898438-26.96875 44.089844 0 5.558594.917968 11.011719 2.699218 16.167969h-15.9375c.054688-.53125.082032-1.066406.082032-1.609375v-20.300781c0-.953125-.097656-1.886719-.253906-2.796875 6.109374-2.441406 10.441406-8.40625 10.441406-15.375v-9.335938c0-9.132812-7.429688-16.5625-16.5625-16.5625h-3.925782c2.234376-4.078125 3.503907-8.753906 3.503907-13.722656v-40.164062c0-15.808594-12.859375-28.671876-28.667969-28.671876h-12.609375v-67.664062c0-4.128906-3.347656-7.476562-7.472656-7.476562-4.128907 0-7.476563 3.347656-7.476563 7.476562v67.667969h-12.609375c-15.808593 0-28.667969 12.859375-28.667969 28.667969v4.980468c0 4.128906 3.347657 7.472656 7.472657 7.472656 4.128906 0 7.476562-3.34375 7.476562-7.472656v-4.980468c0-7.566407 6.15625-13.71875 13.71875-13.71875h40.167969c7.5625 0 13.71875 6.152343 13.71875 13.71875v40.167968c0 7.5625-6.15625 13.71875-13.71875 13.71875h-40.167969c-7.5625 0-13.71875-6.15625-13.71875-13.71875 0-4.128906-3.347656-7.476562-7.476562-7.476562-4.125 0-7.472657 3.347656-7.472657 7.476562 0 4.964844 1.269532 9.640625 3.503907 13.71875h-3.925781c-9.132813 0-16.5625 7.429688-16.5625 16.5625v9.335938c0 6.96875 4.332031 12.933594 10.441406 15.375-.15625.910156-.253906 1.84375-.253906 2.796875v20.300781c0 .542969.027343 1.082031.082031 1.613281h-66.1875c-8.519531 0-15.449219 6.929688-15.449219 15.445313v20.734375c0 8.519531 6.929688 15.449219 15.449219 15.449219h29.765625v18.875c0 27.242187 22.164062 49.40625 49.40625 49.40625h321.492187c27.246094 0 49.410157-22.164063 49.410157-49.40625v-18.875h31.027343c8.519531 0 15.449219-6.929688 15.449219-15.449219v-20.734375c0-8.519532-6.929688-15.449219-15.449219-15.449219zm-165.011719-132.671875v-20.296875c0-.890625.722657-1.613281 1.613282-1.613281h77.976562c.890625 0 1.613282.726562 1.613282 1.613281v20.296875c0 .890625-.726563 1.613281-1.613282 1.613281h-77.976562c-.890625 0-1.613282-.722656-1.613282-1.613281zm57.378907 33.339844c0 9.25-7.527344 16.777344-16.777344 16.777344s-16.777344-7.527344-16.777344-16.777344 7.527344-16.777344 16.777344-16.777344 16.777344 7.527344 16.777344 16.777344zm-50.582031 85.613281v-40.167969c0-7.566406 6.15625-13.71875 13.722656-13.71875h40.164062c7.566406 0 13.722656 6.152344 13.722656 13.71875v40.167969c0 7.566406-6.15625 13.71875-13.722656 13.71875h-40.164062c-7.566406 0-13.722656-6.152344-13.722656-13.71875zm-99.746094-68.789063c0-9.25 7.527344-16.773437 16.777344-16.773437s16.777343 7.523437 16.777343 16.773437c0 9.253907-7.527343 16.777344-16.777343 16.777344s-16.777344-7.523437-16.777344-16.777344zm-17.832032 66.339844c0-19.085937 15.527344-34.613281 34.609376-34.613281 19.085937 0 34.613281 15.527344 34.613281 34.613281 0 5.691406-1.398438 11.207032-4.027344 16.167969h-61.171875c-2.628906-4.957031-4.023438-10.472656-4.023438-16.167969zm-134.445312-33.25c0-.890625.726562-1.613281 1.613281-1.613281h98.347657c.890624 0 1.613281.722656 1.613281 1.613281v9.335938c0 .886718-.722657 1.609375-1.613281 1.609375h-98.347657c-.886719 0-1.609375-.722657-1.609375-1.609375v-9.335938zm10.1875 47.808594v-20.300781c0-.886719.722656-1.609375 1.613281-1.609375h77.976563c.890625 0 1.613281.722656 1.613281 1.609375v20.300781c0 .886719-.722656 1.609375-1.613281 1.609375h-77.976563c-.890625 0-1.613281-.722656-1.613281-1.609375zm400.550781 37.792969c0 .273437-.222656.496093-.5.496093h-115.574219c-4.128906 0-7.476562 3.347657-7.476562 7.476563s3.347656 7.472656 7.476562 7.472656h69.597657v18.878907c0 18.996093-15.460938 34.457031-34.460938 34.457031h-321.492187c-19 0-34.457032-15.460938-34.457032-34.457031v-18.878907h284.734376c4.128906 0 7.476562-3.34375 7.476562-7.472656s-3.347656-7.476563-7.476562-7.476563h-329.449219c-.277344 0-.5-.222656-.5-.496093v-20.734375c0-.273438.222656-.5.5-.5h481.105469c.273437 0 .496093.226562.496093.5zm0 0" fill="#1a8e79" data-original="#000000" style=""/></g></svg>
