<?xml version="1.0"?>
<svg xmlns="http://www.w3.org/2000/svg" xmlns:xlink="http://www.w3.org/1999/xlink" xmlns:svgjs="http://svgjs.com/svgjs" version="1.1" width="512" height="512" x="0" y="0" viewBox="0 0 512.093 512.093" style="enable-background:new 0 0 512 512" xml:space="preserve" class=""><g><g xmlns="http://www.w3.org/2000/svg"><path d="m208.36 223.58-14.864 2.012c4.748 35.073 38.777 63.24 55.051 72.01v27.484h15v-74.551c18.136-8.786 33.656-28.443 42.544-44.88l-13.194-7.135c-7.962 14.725-18.756 27.297-29.35 34.646v-136.508h-15v49.656l-16.781-16.998-10.674 10.538 27.455 27.809v112.372c-14.306-10.008-36.807-31.486-40.187-56.455z" fill="#1a8e79" data-original="#000000" style="" class=""/><path d="m203.418 359.026c-25.038-12.548-53.044-17.677-81.935-22.232-20.197-3.186-45.312-18.896-65.542-40.999l-11.064 10.127c22.415 24.492 50.874 41.998 74.271 45.688 27.678 4.365 54.436 9.242 77.55 20.826z" fill="#1a8e79" data-original="#000000" style="" class=""/><path d="m150.262 21.21c25.36-10.444 56.957-5.025 80.492 13.805l9.371-11.713c-27.729-22.183-65.244-28.449-95.574-15.962-28.738 11.833-46.782 37.576-50.809 72.487l14.9 1.719c3.374-29.246 18.155-50.674 41.62-60.336z" fill="#1a8e79" data-original="#000000" style="" class=""/><path d="m351.764 17.966 3.51-14.584c-28.119-6.765-59.258.682-83.306 19.92l9.371 11.713c20.457-16.364 46.786-22.738 70.425-17.049z" fill="#1a8e79" data-original="#000000" style="" class=""/><path d="m403.445 81.547 14.9-1.72c-3.849-33.353-20.723-58.579-47.513-71.031l-6.322 13.603c21.879 10.169 35.706 31.175 38.935 59.148z" fill="#1a8e79" data-original="#000000" style="" class=""/><path d="m508.756 147.233c-4.609-13.347-13.842-25.609-27.442-36.446-13.6-10.838-27.614-17.101-41.652-18.614-22.186-2.393-42.663 7.076-60.94 28.154-10.934-3.523-25.387-4.643-37.999 1.236-3.207-2.458-6.675-4.448-10.389-5.949-1.959-45.501-28.786-71.455-74.286-71.455-45.505 0-72.333 25.958-74.285 71.471-3.676 1.506-7.11 3.517-10.295 5.98-12.635-5.93-27.134-4.814-38.095-1.283-18.277-21.079-38.766-30.547-60.94-28.154-14.038 1.514-28.053 7.776-41.652 18.614-13.601 10.837-22.833 23.099-27.442 36.446-7.291 21.108-2.619 43.206 13.883 65.749-11.704 20.977-5.371 50.705 17.604 80.912l11.939-9.081c-20.524-26.983-25.898-52.293-14.378-67.706l3.467-4.637-3.608-4.527c-15.742-19.755-20.697-38.533-14.729-55.813 3.665-10.613 11.273-20.576 22.612-29.612s22.749-14.228 33.913-15.432c18.174-1.96 35.372 7.063 51.115 26.818l3.607 4.528 5.294-2.344c5.726-2.536 16.439-5.208 26.32-2.609-9.33 13.512-14.748 32.891-15.278 56.401l14.996.338c.765-33.892 12.335-57.036 30.951-61.909l5.601-1.466v-5.789c0-51.157 32.302-61.895 59.4-61.895s59.401 10.738 59.401 61.895v5.789l5.601 1.466c15.487 4.055 23.022 19.441 26.615 31.634 10.945 37.141.6 93.143-21.705 117.495-3.072 3.354-5.45 5.977-7.71 8.504l11.182 9.998c2.218-2.48 4.559-5.062 7.589-8.37 25.752-28.115 37.449-89.735 25.032-131.867-2.548-8.646-5.988-16.083-10.227-22.253 9.85-2.551 20.507.113 26.212 2.639l5.294 2.344 3.607-4.528c15.743-19.755 32.95-28.771 51.115-26.818 11.164 1.204 22.574 6.396 33.913 15.432s18.947 18.999 22.612 29.612c5.968 17.279 1.013 36.057-14.729 55.813l-3.608 4.527 3.467 4.637c11.521 15.412 6.146 40.723-14.378 67.706l11.939 9.081c22.976-30.208 29.309-59.935 17.604-80.912 16.502-22.544 21.173-44.642 13.882-65.75z" fill="#1a8e79" data-original="#000000" style="" class=""/><path d="m390.61 336.794c-28.891 4.556-56.896 9.684-81.935 22.232l6.721 13.41c23.114-11.584 49.872-16.461 77.55-20.826 23.398-3.69 51.857-21.197 74.271-45.688l-11.064-10.127c-20.23 22.103-45.344 37.813-65.543 40.999z" fill="#1a8e79" data-original="#000000" style="" class=""/><path d="m322.865 380.731h-42.979c5.225-29.541 24.921-55.873 39.857-73.646l-11.482-9.65c-16.513 19.646-38.43 49.131-43.586 83.296h-17.265c-5.964-39.956-34.586-74.157-61.274-103.294-13.813-15.08-23.662-43.017-25.707-72.909l-14.965 1.023c2.266 33.123 13.612 64.55 29.611 82.017 24.638 26.899 51.017 58.231 57.138 93.162h-43.254c-12.406 0-22.5 10.093-22.5 22.5s10.094 22.5 22.5 22.5h44.589v8.014l-30.402 38.151c-1.237 1.553-3.021 2.534-5.023 2.76-2.002.225-3.961-.331-5.515-1.57-1.554-1.238-2.534-3.022-2.761-5.024-.226-2.002.331-3.96 1.569-5.515l13.66-17.143-11.73-9.348-13.66 17.143c-3.735 4.687-5.42 10.564-4.743 16.547.676 5.983 3.63 11.336 8.317 15.07 4.01 3.195 8.889 4.89 13.962 4.89.857 0 1.72-.049 2.585-.146 5.984-.676 11.336-3.63 15.07-8.317l18.67-23.429v30.845c0 12.407 10.094 22.5 22.5 22.5s22.5-10.093 22.5-22.5v-30.844l18.669 23.428c3.735 4.688 9.087 7.642 15.071 8.318.865.098 1.728.146 2.585.146 5.072 0 9.953-1.695 13.962-4.89 4.688-3.735 7.642-9.087 8.317-15.071.677-5.983-1.008-11.86-4.743-16.547l-13.66-17.143-11.73 9.348 13.66 17.143c1.238 1.554 1.795 3.512 1.569 5.515-.227 2.002-1.207 3.787-2.761 5.025-1.554 1.237-3.508 1.794-5.515 1.569-2.002-.226-3.786-1.207-5.024-2.76l-30.4-38.149v-8.015h44.318c12.406 0 22.5-10.094 22.5-22.5s-10.094-22.5-22.5-22.5zm-59.319 107.928c0 4.136-3.364 7.5-7.5 7.5s-7.5-3.364-7.5-7.5l.001-62.928h14.999zm59.319-77.928h-133.906c-4.136 0-7.5-3.365-7.5-7.5s3.364-7.5 7.5-7.5h133.906c4.136 0 7.5 3.364 7.5 7.5s-3.364 7.5-7.5 7.5z" fill="#1a8e79" data-original="#000000" style="" class=""/><path d="m349.975 43.172h15v15h-15z" fill="#1a8e79" data-original="#000000" style="" class=""/><path d="m440.229 145.808h15v15h-15z" fill="#1a8e79" data-original="#000000" style="" class=""/><path d="m147.119 43.172h15v15h-15z" fill="#1a8e79" data-original="#000000" style="" class=""/><path d="m321.881 161.203h15v15h-15z" fill="#1a8e79" data-original="#000000" style="" class=""/><path d="m56.865 145.808h15v15h-15z" fill="#1a8e79" data-original="#000000" style="" class=""/><path d="m436.768 234.822h15v15h-15z" fill="#1a8e79" data-original="#000000" style="" class=""/><path d="m321.881 205.815c-1.883 17.869-8.167 40.574-18.046 51.359l11.061 10.132c13.092-14.292 19.921-40.541 21.946-60.339l.039-15.763h-15z" fill="#1a8e79" data-original="#000000" style="" class=""/><path d="m60.325 234.822h15.001v15h-15.001z" fill="#1a8e79" data-original="#000000" style="" class=""/><path d="m285.448 114.21h15v15h-15z" fill="#1a8e79" data-original="#000000" style="" class=""/></g></g></svg>
